HIERARCHY
ROOT root
{
	OFFSET 0.000000 0.000000 0.000000
	CHANNELS 6 Xposition Yposition Zposition Zrotation Yrotation Xrotation
	JOINT lhip
	{
		OFFSET 0.058581 -0.082280 -0.017664
		CHANNELS 3 Zrotation Yrotation Xrotation
		JOINT lknee
		{
			OFFSET 0.043451 -0.386469 0.008037
			CHANNELS 3 Zrotation Yrotation Xrotation
			JOINT lankle
			{
				OFFSET -0.014790 -0.426874 -0.037428
				CHANNELS 3 Zrotation Yrotation Xrotation
				JOINT ltoe
				{
					OFFSET 0.041054 -0.060286 0.122042
					CHANNELS 3 Zrotation Yrotation Xrotation
					End Site
					{
						OFFSET 0.000000 0.000000 0.000000
					}
				}
			}
		}
	}
	JOINT rhip
	{
		OFFSET -0.060310 -0.090513 -0.013543
		CHANNELS 3 Zrotation Yrotation Xrotation
		JOINT rknee
		{
			OFFSET -0.043257 -0.383688 -0.004843
			CHANNELS 3 Zrotation Yrotation Xrotation
			JOINT rankle
			{
				OFFSET 0.019056 -0.420046 -0.034562
				CHANNELS 3 Zrotation Yrotation Xrotation
				JOINT rtoe
				{
					OFFSET -0.034840 -0.062106 0.130323
					CHANNELS 3 Zrotation Yrotation Xrotation
					End Site
					{
						OFFSET 0.000000 0.000000 0.000000
					}
				}
			}
		}
	}
	JOINT lowerback
	{
		OFFSET 0.004439 0.124404 -0.038385
		CHANNELS 3 Zrotation Yrotation Xrotation
		JOINT upperback
		{
			OFFSET 0.004488 0.137956 0.026820
			CHANNELS 3 Zrotation Yrotation Xrotation
			JOINT chest
			{
				OFFSET -0.002265 0.056032 0.002855
				CHANNELS 3 Zrotation Yrotation Xrotation
				JOINT lowerneck
				{
					OFFSET -0.013390 0.211636 -0.033468
					CHANNELS 3 Zrotation Yrotation Xrotation
					JOINT upperneck
					{
						OFFSET 0.010113 0.088937 0.050410
						CHANNELS 3 Zrotation Yrotation Xrotation
						End Site
						{
							OFFSET 0.000000 0.000000 0.000000
						}
					}
				}
				JOINT lclavicle
				{
					OFFSET 0.071702 0.114000 -0.018898
					CHANNELS 3 Zrotation Yrotation Xrotation
					JOINT lshoulder
					{
						OFFSET 0.122921 0.045205 -0.019046
						CHANNELS 3 Zrotation Yrotation Xrotation
						JOINT lelbow
						{
							OFFSET 0.255332 -0.015649 -0.022946
							CHANNELS 3 Zrotation Yrotation Xrotation
							JOINT lwrist
							{
								OFFSET 0.265709 0.012698 -0.007375
								CHANNELS 3 Zrotation Yrotation Xrotation
								End Site
								{
									OFFSET 0.000000 0.000000 0.000000
								}
							}
						}
					}
				}
				JOINT rclavicle
				{
					OFFSET -0.082954 0.112472 -0.023707
					CHANNELS 3 Zrotation Yrotation Xrotation
					JOINT rshoulder
					{
						OFFSET -0.113228 0.046853 -0.008472
						CHANNELS 3 Zrotation Yrotation Xrotation
						JOINT relbow
						{
							OFFSET -0.260127 -0.014369 -0.031269
							CHANNELS 3 Zrotation Yrotation Xrotation
							JOINT rwrist
							{
								OFFSET -0.269108 0.006794 -0.006027
								CHANNELS 3 Zrotation Yrotation Xrotation
								End Site
								{
									OFFSET 0.000000 0.000000 0.000000
								}
							}
						}
					}
				}
			}
		}
	}
}
MOTION
Frames: 7
Frame Time: 0.033333
-0.117839 0.290174 0.979406 96.166660 1.543057 83.059902 4.047844 1.741410 18.250090 -6.138051 -15.175935 1.910255 2.896733 9.339373 -22.168342 0.000000 -0.000000 0.000000 -2.980875 1.350967 -20.848676 1.090794 -15.115717 31.482436 6.390791 -10.152731 -15.564519 0.000000 -0.000000 0.000000 -1.785302 -4.984487 11.722051 3.164917 -0.953136 0.716130 0.955358 -2.641928 0.926425 1.404505 4.015145 -4.762536 -0.361606 -3.664096 4.963877 -27.215971 4.666635 1.351301 -58.964197 -13.677436 11.628411 16.876911 -43.546613 7.564498 -5.099591 -9.149389 -5.824311 31.383294 -9.747371 2.910752 59.635647 -12.055968 7.524901 -25.891132 19.824538 -2.284908 13.849728 0.985515 3.747668 
-0.070203 0.288819 0.968561 97.741870 1.031719 83.127369 5.811977 3.057233 21.674824 -7.101502 -17.460159 1.712677 1.627895 7.983309 -23.173032 0.000000 -0.000000 0.000000 -3.678626 -0.072305 -21.212560 2.470675 -13.271354 18.161722 6.845746 -9.783347 -15.618495 0.000000 -0.000000 0.000000 -2.236876 -5.020082 11.294435 3.247208 -1.583870 1.633044 1.346840 -3.432058 0.902316 1.035196 3.983308 -4.607050 0.244794 -4.067580 4.070862 -26.247456 3.702327 1.038548 -57.964463 -17.498140 12.524822 16.221769 -46.966959 6.898086 -1.063133 -10.214024 -7.879586 31.052045 -11.171907 3.079147 59.440928 -14.955522 7.226630 -25.442041 20.224522 -2.438385 12.761384 0.684233 2.351574 
-0.022906 0.287221 0.956982 99.256612 0.226046 84.126017 6.807488 3.895029 23.078226 -7.758851 -18.066451 3.309259 0.908074 6.092690 -24.145522 0.000000 -0.000000 0.000000 -4.328086 -2.838139 -22.848175 3.651758 -10.274612 8.700179 7.581814 -7.413440 -13.911330 0.000000 -0.000000 0.000000 -2.504086 -4.539255 9.822260 3.237996 -2.469736 2.188787 1.475066 -4.433322 0.898387 0.735951 3.829126 -4.744607 0.809335 -4.032119 3.896978 -26.031313 3.045828 0.956218 -56.376731 -21.042145 12.394281 16.396919 -49.564777 5.729345 -0.346256 -11.260627 -7.505182 31.055855 -12.790244 3.230084 58.821048 -16.852602 6.549918 -24.984134 20.540076 -3.178995 13.119442 0.752392 1.592747 
0.026155 0.285183 0.947495 101.265943 -0.031703 85.151211 8.019709 3.707984 23.925971 -7.863398 -20.883437 5.795108 0.165551 5.413585 -24.605150 0.000000 -0.000000 0.000000 -5.232194 -4.030004 -23.971143 5.055787 -9.276923 4.102386 8.720495 -6.356027 -12.859963 0.000000 -0.000000 0.000000 -2.202061 -5.119925 8.535021 3.344281 -3.050922 2.331918 1.534236 -5.293037 0.888116 0.417525 3.745589 -4.925040 0.741950 -3.907257 3.921024 -25.908391 2.921639 1.002639 -55.572624 -23.189736 12.638816 17.447625 -52.183111 4.317695 1.068041 -11.182117 -8.052460 31.188649 -14.081976 3.136701 57.452272 -18.379212 6.379750 -23.894360 21.202989 -3.376234 12.928649 0.889765 0.674781 
0.078196 0.282867 0.940991 102.375652 0.436354 85.785671 9.145659 2.402866 24.269224 -8.444178 -21.777276 10.634483 -2.069075 5.389281 -23.020861 0.000000 -0.000000 0.000000 -5.310528 -2.152807 -25.601326 4.761056 -10.140181 7.889127 8.570658 -6.516939 -13.702975 0.000000 -0.000000 0.000000 -1.131659 -6.709193 8.043940 3.653116 -2.875348 1.947598 1.310012 -5.298825 0.856276 0.188960 3.922776 -5.723427 0.163839 -3.682041 4.316420 -26.154003 3.489251 0.751907 -55.565426 -23.668755 12.811200 19.382363 -54.562744 2.355422 1.469632 -11.706696 -7.788431 31.165286 -14.453873 2.981214 56.584468 -19.117853 6.361949 -23.512167 20.713511 -2.851963 13.220770 1.127270 0.151425 
0.134009 0.279362 0.939549 101.934904 0.843970 86.161222 8.861575 0.775702 24.441646 -8.697837 -22.158776 16.521567 -2.929657 5.982897 -19.230090 0.000000 -0.000000 0.000000 -4.651527 -0.498707 -27.060182 4.278700 -11.437224 15.070602 8.846038 -7.411570 -6.749185 0.000000 -0.000000 0.000000 -0.166226 -7.466162 6.765326 4.166552 -2.198877 2.645523 1.083279 -5.184051 0.716954 -0.357076 3.494529 -6.316594 -0.498331 -2.652669 4.339598 -27.275373 4.369353 0.894757 -55.251056 -22.636829 12.929899 21.339299 -56.793227 -0.019663 1.911112 -12.309746 -8.034007 31.904605 -14.410714 2.886504 55.035380 -18.939559 6.868840 -23.481228 20.558847 -3.343479 13.174117 1.013184 0.196128 
0.188201 0.275413 0.942228 100.023713 1.660741 86.673850 7.590759 -0.419245 21.747282 -8.895694 -17.697552 25.986487 -4.239023 6.759675 -8.578528 0.000000 -0.000000 0.000000 -3.243362 2.240469 -29.561600 2.998437 -10.744895 24.408264 7.365657 -7.134787 -6.120715 0.000000 -0.000000 0.000000 1.158551 -8.075511 6.260408 4.831450 -1.065447 2.885440 0.742947 -4.400033 0.399917 -0.539717 4.069039 -7.572586 -1.549105 -2.146381 5.073479 -28.683447 5.424260 0.784085 -55.474665 -19.977596 13.408589 24.136216 -58.399531 -3.368733 1.529531 -12.003586 -7.810445 32.878491 -13.095086 3.404790 53.942803 -17.259580 7.446935 -24.056155 19.455424 -3.845563 12.902606 0.619216 0.338460 
